<svg width="24" height="17" viewBox="0 0 24 17" fill="none" xmlns="http://www.w3.org/2000/svg">
<path fill-rule="evenodd" clip-rule="evenodd" d="M11.2107 16.2819C11.1254 16.623 10.8189 16.8623 10.4673 16.8624C10.4027 16.8627 10.3384 16.855 10.2757 16.8394L7.21031 16.0731C7.12497 16.0516 7.04396 16.0157 6.97083 15.9667L4.67178 14.434C4.3197 14.1991 4.2247 13.7233 4.4596 13.3712C4.6945 13.0191 5.17035 12.9241 5.52243 13.159L7.71036 14.618L10.6474 15.3527C10.8456 15.4007 11.0165 15.5258 11.1222 15.7002C11.2279 15.8746 11.2597 16.0839 11.2107 16.2819ZM23.9215 7.04164C23.7945 7.42741 23.5186 7.74643 23.1552 7.92773L20.8868 9.06193L15.6105 14.3392C15.42 14.5295 15.1436 14.6059 14.8824 14.5404L8.75163 13.0077C8.6584 12.9843 8.57036 12.9437 8.49203 12.8879L3.17357 9.09066L0.847702 7.92773C0.0907634 7.54934 -0.216273 6.62909 0.16182 5.872L2.54229 1.11202C2.92068 0.355077 3.84093 0.0480404 4.59802 0.426133L6.71123 1.47986L11.7883 0.0295472C11.926 -0.00984906 12.072 -0.00984906 12.2098 0.0295472L17.2868 1.47986L19.4001 0.426133C20.1571 0.0480404 21.0774 0.355077 21.4558 1.11202L23.8363 5.872C24.0196 6.23487 24.0503 6.65601 23.9215 7.04164ZM19.4978 8.28121L16.8912 3.06812H13.8431L9.70095 7.09145C10.9137 7.86642 12.8152 8.08004 14.5213 6.36055C14.7972 6.0824 15.2385 6.0572 15.5444 6.30211L18.8406 8.94314L19.4978 8.28121ZM1.53263 6.55692L3.22722 7.4047L5.60769 2.64471L3.9131 1.79694L1.53263 6.55692ZM17.7476 10.0285L15.0932 7.90282C13.2214 9.43552 10.8447 9.63765 8.87521 8.38179C8.48278 8.13217 8.22493 7.71786 8.17426 7.25553C8.1236 6.79321 8.2856 6.33289 8.61465 6.0042C8.61696 6.00141 8.61952 5.99884 8.62231 5.99653L12.9196 1.82855L12 1.56608L7.17008 2.94646L4.54821 8.18925L9.26126 11.5564L14.8307 12.9483L17.7476 10.0285ZM22.4645 6.55692L20.0869 1.79694L18.3923 2.64471L20.7728 7.4047L22.4645 6.55692Z" fill="white"/>
</svg>
