<svg width="44" height="44" viewBox="0 0 44 44" fill="none" xmlns="http://www.w3.org/2000/svg">
<path fill-rule="evenodd" clip-rule="evenodd" d="M10 22C10 15.3724 15.3724 10 22 10C28.6276 10 34 15.3724 34 22C34 28.6276 28.6276 34 22 34C15.3724 34 10 28.6276 10 22ZM22 12.4C19.4539 12.4 17.0121 13.4114 15.2118 15.2118C13.4114 17.0121 12.4 19.4539 12.4 22C12.4 24.5461 13.4114 26.9879 15.2118 28.7882C17.0121 30.5886 19.4539 31.6 22 31.6C24.5461 31.6 26.9879 30.5886 28.7882 28.7882C30.5886 26.9879 31.6 24.5461 31.6 22C31.6 19.4539 30.5886 17.0121 28.7882 15.2118C26.9879 13.4114 24.5461 12.4 22 12.4Z" fill="#121217"/>
<path fill-rule="evenodd" clip-rule="evenodd" d="M23.1998 16.0003C23.1998 15.682 23.0734 15.3768 22.8483 15.1518C22.6233 14.9267 22.3181 14.8003 21.9998 14.8003C21.6815 14.8003 21.3763 14.9267 21.1513 15.1518C20.9262 15.3768 20.7998 15.682 20.7998 16.0003V20.8003H15.9998C15.6815 20.8003 15.3763 20.9267 15.1513 21.1518C14.9262 21.3768 14.7998 21.682 14.7998 22.0003C14.7998 22.3186 14.9262 22.6238 15.1513 22.8488C15.3763 23.0739 15.6815 23.2003 15.9998 23.2003H20.7998V28.0003C20.7998 28.3186 20.9262 28.6238 21.1513 28.8488C21.3763 29.0739 21.6815 29.2003 21.9998 29.2003C22.3181 29.2003 22.6233 29.0739 22.8483 28.8488C23.0734 28.6238 23.1998 28.3186 23.1998 28.0003V23.2003H27.9998C28.3181 23.2003 28.6233 23.0739 28.8483 22.8488C29.0734 22.6238 29.1998 22.3186 29.1998 22.0003C29.1998 21.682 29.0734 21.3768 28.8483 21.1518C28.6233 20.9267 28.3181 20.8003 27.9998 20.8003H23.1998V16.0003Z" fill="#121217"/>
</svg>
