<svg width="44" height="44" viewBox="0 0 44 44" fill="none" xmlns="http://www.w3.org/2000/svg">
<path d="M17.8462 22.9231C18.2671 22.9231 18.6326 22.9231 18.9538 23.0006C19.4507 23.1191 19.905 23.3728 20.2667 23.7335C20.6283 24.0941 20.8832 24.5478 21.0031 25.0443C21.0769 25.3674 21.0769 25.7329 21.0769 26.1538V30.7692C21.0769 31.1902 21.0769 31.5557 21.0012 31.8769C20.8824 32.3742 20.6282 32.8289 20.2668 33.1906C19.9055 33.5523 19.451 33.8069 18.9538 33.9262C18.6326 34 18.2671 34 17.8462 34H13.2308C12.8098 34 12.4443 34 12.1231 33.9243C11.6267 33.805 11.173 33.5509 10.812 33.1899C10.451 32.8289 10.1968 32.3751 10.0775 31.8788C10 31.5557 10 31.1902 10 30.7692V26.1538C10 25.7329 10 25.3674 10.0775 25.0462C10.1967 24.55 10.4506 24.0964 10.8112 23.7355C11.1718 23.3745 11.6252 23.1202 12.1212 23.0006C12.4443 22.9231 12.8098 22.9231 13.2308 22.9231H17.8462ZM30.7692 22.9231C31.1902 22.9231 31.5557 22.9231 31.8769 23.0006C32.3734 23.1194 32.8274 23.3732 33.1887 23.7339C33.55 24.0945 33.8046 24.548 33.9243 25.0443C34.0018 25.3674 34 25.7329 34 26.1538V30.7692C34 31.1902 34 31.5557 33.9243 31.8769C33.8053 32.3736 33.5513 32.8278 33.1903 33.1891C32.8293 33.5504 32.3754 33.8049 31.8788 33.9243C31.5557 34.0018 31.1902 34 30.7692 34H26.1538C25.7329 34 25.3674 34 25.0462 33.9243C24.5498 33.805 24.096 33.5509 23.735 33.1899C23.3741 32.8289 23.1199 32.3751 23.0006 31.8788C22.9231 31.5557 22.9231 31.1902 22.9231 30.7692V26.1538C22.9231 25.7329 22.9231 25.3674 23.0006 25.0462C23.1197 24.55 23.3736 24.0964 23.7343 23.7355C24.0949 23.3745 24.5483 23.1202 25.0443 23.0006C25.3674 22.9231 25.7329 22.9231 26.1538 22.9231H30.7692ZM13.3231 24.7692C12.7563 24.7692 12.6345 24.7748 12.5551 24.7951C12.3892 24.8347 12.2376 24.9196 12.117 25.0401C11.9965 25.1607 11.9117 25.3123 11.872 25.4782C11.8535 25.5575 11.8462 25.6812 11.8462 26.2462V30.6769C11.8462 31.2455 11.8517 31.3674 11.872 31.4468C11.9117 31.6126 11.9965 31.7642 12.117 31.8848C12.2376 32.0054 12.3892 32.0902 12.5551 32.1298C12.6345 32.1483 12.7582 32.1538 13.3231 32.1538H17.7538C18.3225 32.1538 18.4443 32.1483 18.5237 32.128C18.6893 32.0885 18.8408 32.0039 18.9613 31.8837C19.0819 31.7635 19.1668 31.6123 19.2068 31.4468C19.2252 31.3674 19.2308 31.2437 19.2308 30.6769V26.2462C19.2308 25.6794 19.2252 25.5575 19.2049 25.4782C19.1654 25.3125 19.0809 25.1611 18.9606 25.0405C18.8404 24.92 18.6892 24.835 18.5237 24.7951C18.4443 24.7766 18.3206 24.7692 17.7538 24.7692H13.3231ZM26.2462 24.7692C25.6794 24.7692 25.5575 24.7748 25.4782 24.7951C25.3123 24.8347 25.1607 24.9196 25.0401 25.0401C24.9196 25.1607 24.8347 25.3123 24.7951 25.4782C24.7766 25.5575 24.7692 25.6812 24.7692 26.2462V30.6769C24.7692 31.2455 24.7748 31.3674 24.7951 31.4468C24.8347 31.6126 24.9196 31.7642 25.0401 31.8848C25.1607 32.0054 25.3123 32.0902 25.4782 32.1298C25.5575 32.1483 25.6812 32.1538 26.2462 32.1538H30.6769C31.2455 32.1538 31.3674 32.1483 31.4468 32.128C31.6124 32.0885 31.7638 32.0039 31.8844 31.8837C32.0049 31.7635 32.0899 31.6123 32.1298 31.4468C32.1483 31.3674 32.1538 31.2437 32.1538 30.6769V26.2462C32.1538 25.6794 32.1465 25.5575 32.128 25.4782C32.0885 25.3125 32.0039 25.1611 31.8837 25.0405C31.7635 24.92 31.6123 24.835 31.4468 24.7951C31.3674 24.7766 31.2437 24.7692 30.6769 24.7692H26.2462ZM17.8462 10C18.2671 10 18.6326 10 18.9538 10.0775C19.4507 10.1961 19.905 10.4497 20.2667 10.8104C20.6283 11.1711 20.8832 11.6247 21.0031 12.1212C21.0769 12.4443 21.0769 12.8098 21.0769 13.2308V17.8462C21.0769 18.2671 21.0769 18.6326 21.0012 18.9538C20.8824 19.4511 20.6282 19.9058 20.2668 20.2675C19.9055 20.6292 19.451 20.8838 18.9538 21.0031C18.6326 21.0769 18.2671 21.0769 17.8462 21.0769H13.2308C12.8098 21.0769 12.4443 21.0769 12.1231 21.0012C11.6261 20.8821 11.1718 20.6278 10.8105 20.2664C10.4491 19.9051 10.1948 19.4508 10.0757 18.9538C10 18.6326 10 18.2671 10 17.8462V13.2308C10 12.8098 10 12.4443 10.0775 12.1231C10.1967 11.6269 10.4506 11.1733 10.8112 10.8124C11.1718 10.4514 11.6252 10.1971 12.1212 10.0775C12.4443 10 12.8098 10 13.2308 10H17.8462ZM30.7692 10C31.1902 10 31.5557 10 31.8769 10.0775C32.3734 10.1964 32.8274 10.4501 33.1887 10.8108C33.55 11.1714 33.8046 11.625 33.9243 12.1212C34.0018 12.4443 34 12.8098 34 13.2308V17.8462C34 18.2671 34 18.6326 33.9243 18.9538C33.8055 19.4511 33.5513 19.9058 33.1899 20.2675C32.8286 20.6292 32.3741 20.8838 31.8769 21.0031C31.5557 21.0769 31.1902 21.0769 30.7692 21.0769H26.1538C25.7329 21.0769 25.3674 21.0769 25.0462 21.0012C24.5492 20.8821 24.0949 20.6278 23.7336 20.2664C23.3722 19.9051 23.1179 19.4508 22.9988 18.9538C22.9231 18.6326 22.9231 18.2671 22.9231 17.8462V13.2308C22.9231 12.8098 22.9231 12.4443 23.0006 12.1231C23.1197 11.6269 23.3736 11.1733 23.7343 10.8124C24.0949 10.4514 24.5483 10.1971 25.0443 10.0775C25.3674 10 25.7329 10 26.1538 10H30.7692ZM13.3231 11.8462C12.7563 11.8462 12.6345 11.8517 12.5551 11.872C12.3892 11.9117 12.2376 11.9965 12.117 12.117C11.9965 12.2376 11.9117 12.3892 11.872 12.5551C11.8535 12.6345 11.8462 12.7582 11.8462 13.3231V17.7538C11.8462 18.3225 11.8517 18.4443 11.872 18.5237C11.9117 18.6895 11.9965 18.8411 12.117 18.9617C12.2376 19.0823 12.3892 19.1671 12.5551 19.2068C12.6345 19.2252 12.7582 19.2308 13.3231 19.2308H17.7538C18.3225 19.2308 18.4443 19.2252 18.5237 19.2049C18.6893 19.1654 18.8408 19.0809 18.9613 18.9606C19.0819 18.8404 19.1668 18.6892 19.2068 18.5237C19.2252 18.4443 19.2308 18.3206 19.2308 17.7538V13.3231C19.2308 12.7563 19.2252 12.6345 19.2049 12.5551C19.1654 12.3895 19.0809 12.238 18.9606 12.1175C18.8404 11.9969 18.6892 11.912 18.5237 11.872C18.4443 11.8535 18.3206 11.8462 17.7538 11.8462H13.3231ZM26.2462 11.8462C25.6794 11.8462 25.5575 11.8517 25.4782 11.872C25.3123 11.9117 25.1607 11.9965 25.0401 12.117C24.9196 12.2376 24.8347 12.3892 24.7951 12.5551C24.7766 12.6345 24.7692 12.7582 24.7692 13.3231V17.7538C24.7692 18.3225 24.7748 18.4443 24.7951 18.5237C24.8347 18.6895 24.9196 18.8411 25.0401 18.9617C25.1607 19.0823 25.3123 19.1671 25.4782 19.2068C25.5575 19.2252 25.6812 19.2308 26.2462 19.2308H30.6769C31.2455 19.2308 31.3674 19.2252 31.4468 19.2049C31.6124 19.1654 31.7638 19.0809 31.8844 18.9606C32.0049 18.8404 32.0899 18.6892 32.1298 18.5237C32.1483 18.4443 32.1538 18.3206 32.1538 17.7538V13.3231C32.1538 12.7563 32.1465 12.6345 32.128 12.5551C32.0885 12.3895 32.0039 12.238 31.8837 12.1175C31.7635 11.9969 31.6123 11.912 31.4468 11.872C31.3674 11.8535 31.2437 11.8462 30.6769 11.8462H26.2462Z" fill="#121212"/>
</svg>
