<svg width="20" height="20" viewBox="0 0 20 20" fill="none" xmlns="http://www.w3.org/2000/svg">
<path d="M9.31947 1.73584H2.68661C2.184 1.73584 1.70197 1.9355 1.34657 2.2909C0.991166 2.6463 0.791504 3.12833 0.791504 3.63094V16.8967C0.791504 17.3993 0.991166 17.8813 1.34657 18.2367C1.70197 18.5921 2.184 18.7918 2.68661 18.7918H15.9523C16.4549 18.7918 16.937 18.5921 17.2924 18.2367C17.6478 17.8813 17.8474 17.3993 17.8474 16.8967V10.2638" stroke="#121217" stroke-width="1.58333" stroke-linecap="round" stroke-linejoin="round"/>
<path d="M15.36 1.38048C15.737 1.00352 16.2483 0.791748 16.7814 0.791748C17.3145 0.791748 17.8257 1.00352 18.2027 1.38048C18.5796 1.75744 18.7914 2.26871 18.7914 2.80181C18.7914 3.33491 18.5796 3.84618 18.2027 4.22314L9.6624 12.7644C9.43741 12.9892 9.15945 13.1537 8.85414 13.2429L6.13182 14.0388C6.05029 14.0626 5.96386 14.064 5.88158 14.043C5.79931 14.0219 5.72421 13.9791 5.66416 13.919C5.6041 13.859 5.56129 13.7839 5.54021 13.7016C5.51913 13.6193 5.52056 13.5329 5.54434 13.4513L6.34029 10.729C6.42985 10.424 6.59474 10.1463 6.81975 9.92171L15.36 1.38048Z" stroke="#121217" stroke-width="1.58333" stroke-linecap="round" stroke-linejoin="round"/>
</svg>
