<svg width="44" height="44" viewBox="0 0 44 44" fill="none" xmlns="http://www.w3.org/2000/svg">
<path d="M23.2001 10C23.8057 9.99979 24.3889 10.2539 24.833 10.7113C25.277 11.1688 25.549 11.7958 25.5944 12.4667L25.6004 12.6667V18H29.2008C29.8064 17.9998 30.3896 18.2539 30.8336 18.7113C31.2777 19.1688 31.5496 19.7958 31.5951 20.4667L31.6011 20.6667V31.3333H32.8012C33.1071 31.3337 33.4013 31.4638 33.6237 31.6971C33.8462 31.9304 33.98 32.2493 33.9979 32.5885C34.0159 32.9278 33.9165 33.2618 33.7202 33.5224C33.5239 33.783 33.2454 33.9505 32.9416 33.9907L32.8012 34H11.1988C10.8929 33.9996 10.5987 33.8695 10.3763 33.6362C10.1538 33.4029 10.02 33.0841 10.0021 32.7448C9.98414 32.4056 10.0835 32.0715 10.2798 31.8109C10.4761 31.5503 10.7546 31.3828 11.0584 31.3427L11.1988 31.3333H12.3989V12.6667C12.3987 11.9939 12.6274 11.3459 13.0392 10.8526C13.451 10.3593 14.0153 10.0571 14.6192 10.0067L14.7992 10H23.2001ZM29.2008 20.6667H25.6004V31.3333H29.2008V20.6667ZM23.2001 12.6667H14.7992V31.3333H23.2001V12.6667ZM20.7999 26V28.6667H17.1995V26H20.7999ZM20.7999 20.6667V23.3333H17.1995V20.6667H20.7999ZM20.7999 15.3333V18H17.1995V15.3333H20.7999Z" fill="#121217"/>
</svg>
