<svg width="24" height="24" viewBox="0 0 24 24" fill="none" xmlns="http://www.w3.org/2000/svg">
<path d="M13.2001 1.33691e-07C13.8057 -0.000212772 14.3889 0.253875 14.833 0.711329C15.277 1.16878 15.549 1.79579 15.5944 2.46667L15.6004 2.66667V8H19.2008C19.8064 7.99979 20.3896 8.25388 20.8336 8.71133C21.2777 9.16878 21.5496 9.79579 21.5951 10.4667L21.6011 10.6667V21.3333H22.8012C23.1071 21.3337 23.4013 21.4638 23.6237 21.6971C23.8462 21.9304 23.98 22.2493 23.9979 22.5885C24.0159 22.9278 23.9165 23.2618 23.7202 23.5224C23.5239 23.783 23.2454 23.9505 22.9416 23.9907L22.8012 24H1.1988C0.892914 23.9996 0.598698 23.8695 0.37627 23.6362C0.153842 23.4029 0.0199908 23.0841 0.00206427 22.7448C-0.0158623 22.4056 0.0834893 22.0715 0.279819 21.8109C0.476149 21.5503 0.754639 21.3828 1.05839 21.3427L1.1988 21.3333H2.39894V2.66667C2.39874 1.9939 2.62745 1.34591 3.0392 0.852603C3.45096 0.359294 4.01533 0.0571246 4.61918 0.00666695L4.7992 1.33691e-07H13.2001ZM19.2008 10.6667H15.6004V21.3333H19.2008V10.6667ZM13.2001 2.66667H4.7992V21.3333H13.2001V2.66667ZM10.7999 16V18.6667H7.19947V16H10.7999ZM10.7999 10.6667V13.3333H7.19947V10.6667H10.7999ZM10.7999 5.33333V8H7.19947V5.33333H10.7999Z" fill="#3C2B98"/>
</svg>
