<svg width="13" height="13" viewBox="0 0 13 13" fill="none" xmlns="http://www.w3.org/2000/svg">
<path d="M1.58333 12.3302C1.14792 12.3302 0.775305 12.1753 0.4655 11.8655C0.155694 11.5557 0.000527778 11.1828 0 10.7469V9.16355C0 8.93925 0.0760001 8.75136 0.228 8.59989C0.38 8.44841 0.567889 8.37241 0.791667 8.37189C1.01544 8.37136 1.2036 8.44736 1.35612 8.59989C1.50865 8.75241 1.58439 8.9403 1.58333 9.16355V10.7469H11.0833V9.16355C11.0833 8.93925 11.1593 8.75136 11.3113 8.59989C11.4633 8.44841 11.6512 8.37241 11.875 8.37189C12.0988 8.37136 12.2869 8.44736 12.4395 8.59989C12.592 8.75241 12.6677 8.9403 12.6667 9.16355V10.7469C12.6667 11.1823 12.5118 11.5552 12.202 11.8655C11.8922 12.1758 11.5193 12.3307 11.0833 12.3302H1.58333ZM5.54167 2.71147L4.05729 4.19585C3.89896 4.35418 3.71107 4.43018 3.49363 4.42384C3.27618 4.41751 3.08803 4.33491 2.92917 4.17605C2.78403 4.01772 2.70803 3.833 2.70117 3.62189C2.69431 3.41078 2.77031 3.22605 2.92917 3.06772L5.77917 0.21772C5.85833 0.138554 5.9441 0.0826092 6.03646 0.049887C6.12882 0.0171647 6.22778 0.000539957 6.33333 1.21796e-05C6.43889 -0.000515598 6.53785 0.0161092 6.63021 0.049887C6.72257 0.0836647 6.80833 0.139609 6.8875 0.21772L9.7375 3.06772C9.89583 3.22605 9.97183 3.41078 9.9655 3.62189C9.95917 3.833 9.88317 4.01772 9.7375 4.17605C9.57917 4.33439 9.39128 4.41698 9.17383 4.42384C8.95639 4.43071 8.76824 4.35471 8.60938 4.19585L7.125 2.71147V8.37189C7.125 8.59619 7.049 8.78435 6.897 8.93635C6.745 9.08835 6.55711 9.16408 6.33333 9.16355C6.10956 9.16303 5.92167 9.08703 5.76967 8.93555C5.61767 8.78408 5.54167 8.59619 5.54167 8.37189V2.71147Z" fill="white"/>
</svg>
