<svg width="15" height="15" viewBox="0 0 15 15" fill="none" xmlns="http://www.w3.org/2000/svg">
<path d="M3.16667 12.6667V7.91667H11.0833V12.6667H12.6667V3.82217L10.4278 1.58333H1.58333V12.6667H3.16667ZM0.791667 0H11.0833L14.25 3.16667V13.4583C14.25 13.6683 14.1666 13.8697 14.0181 14.0181C13.8697 14.1666 13.6683 14.25 13.4583 14.25H0.791667C0.581704 14.25 0.38034 14.1666 0.231874 14.0181C0.0834075 13.8697 0 13.6683 0 13.4583V0.791667C0 0.581704 0.0834075 0.38034 0.231874 0.231874C0.38034 0.0834075 0.581704 0 0.791667 0ZM4.75 9.5V12.6667H9.5V9.5H4.75Z" fill="#014648"/>
</svg>
