<svg width="44" height="44" viewBox="0 0 44 44" fill="none" xmlns="http://www.w3.org/2000/svg">
<path fill-rule="evenodd" clip-rule="evenodd" d="M20.9139 10.2588C21.2462 10.0891 21.6199 10 22 10C22.3801 10 22.7538 10.0891 23.0861 10.2588L32.8488 15.2481C33.5593 15.6111 34 16.2997 34 17.0481V26.9519C34 27.7003 33.5593 28.3889 32.8488 28.7519L23.0861 33.7412C22.7538 33.9109 22.3801 34 22 34C21.6199 34 21.2462 33.9109 20.9139 33.7412L11.1512 28.7519C10.8022 28.5736 10.5114 28.3127 10.309 27.9962C10.1066 27.6797 9.99989 27.3192 10 26.9519V17.0481C10 16.2997 10.4407 15.6111 11.1512 15.2481L20.9139 10.2588ZM22.099 11.8953C22.0687 11.8798 22.0346 11.8716 22 11.8716C21.9654 11.8716 21.9313 11.8798 21.901 11.8953L12.1383 16.8847C12.1069 16.9008 12.0806 16.9243 12.0623 16.9528C12.0439 16.9812 12.0341 17.0137 12.0339 17.0468V26.9532C12.0339 27.0205 12.0746 27.0829 12.1383 27.1153L21.901 32.1047C21.9313 32.1202 21.9654 32.1284 22 32.1284C22.0346 32.1284 22.0687 32.1202 22.099 32.1047L31.8617 27.1153C31.8931 27.0992 31.9194 27.0757 31.9377 27.0472C31.9561 27.0188 31.9659 26.9863 31.9661 26.9532V17.0481C31.9661 17.0147 31.9564 16.982 31.9381 16.9533C31.9197 16.9246 31.8933 16.9009 31.8617 16.8847L22.099 11.8953Z" fill="black"/>
<path fill-rule="evenodd" clip-rule="evenodd" d="M16 22C16 20.4087 16.6321 18.8826 17.7574 17.7574C18.8826 16.6321 20.4087 16 22 16C23.5913 16 25.1174 16.6321 26.2426 17.7574C27.3679 18.8826 28 20.4087 28 22C28 23.5913 27.3679 25.1174 26.2426 26.2426C25.1174 27.3679 23.5913 28 22 28C20.4087 28 18.8826 27.3679 17.7574 26.2426C16.6321 25.1174 16 23.5913 16 22ZM22 17.8947C20.9112 17.8947 19.867 18.3273 19.0971 19.0971C18.3273 19.867 17.8947 20.9112 17.8947 22C17.8947 23.0888 18.3273 24.133 19.0971 24.9029C19.867 25.6727 20.9112 26.1053 22 26.1053C23.0888 26.1053 24.133 25.6727 24.9029 24.9029C25.6727 24.133 26.1053 23.0888 26.1053 22C26.1053 20.9112 25.6727 19.867 24.9029 19.0971C24.133 18.3273 23.0888 17.8947 22 17.8947Z" fill="black"/>
</svg>
