<svg width="19" height="24" viewBox="0 0 19 24" fill="none" xmlns="http://www.w3.org/2000/svg">
<path d="M0 2.4C0 1.76348 0.250222 1.15303 0.695621 0.702944C1.14102 0.252856 1.74511 0 2.375 0H11.875C12.1899 6.79649e-05 12.4919 0.126541 12.7146 0.3516L18.6521 6.3516C18.8748 6.57659 18.9999 6.88177 19 7.2V21.6C19 22.2365 18.7498 22.847 18.3044 23.2971C17.859 23.7471 17.2549 24 16.625 24H2.375C1.74511 24 1.14102 23.7471 0.695621 23.2971C0.250222 22.847 0 22.2365 0 21.6V2.4ZM16.1334 7.2L11.875 2.8968V7.2H16.1334ZM9.5 2.4H2.375V21.6H16.625V9.6H10.6875C10.3726 9.6 10.0705 9.47357 9.84781 9.24853C9.62511 9.02348 9.5 8.71826 9.5 8.4V2.4ZM4.75 13.2C4.75 12.8817 4.87511 12.5765 5.09781 12.3515C5.32051 12.1264 5.62256 12 5.9375 12H13.0625C13.3774 12 13.6795 12.1264 13.9022 12.3515C14.1249 12.5765 14.25 12.8817 14.25 13.2C14.25 13.5183 14.1249 13.8235 13.9022 14.0485C13.6795 14.2736 13.3774 14.4 13.0625 14.4H5.9375C5.62256 14.4 5.32051 14.2736 5.09781 14.0485C4.87511 13.8235 4.75 13.5183 4.75 13.2ZM4.75 18C4.75 17.6817 4.87511 17.3765 5.09781 17.1515C5.32051 16.9264 5.62256 16.8 5.9375 16.8H13.0625C13.3774 16.8 13.6795 16.9264 13.9022 17.1515C14.1249 17.3765 14.25 17.6817 14.25 18C14.25 18.3183 14.1249 18.6235 13.9022 18.8485C13.6795 19.0736 13.3774 19.2 13.0625 19.2H5.9375C5.62256 19.2 5.32051 19.0736 5.09781 18.8485C4.87511 18.6235 4.75 18.3183 4.75 18Z" fill="#3C2B98"/>
</svg>
