<svg width="20" height="13" viewBox="0 0 20 13" fill="none" xmlns="http://www.w3.org/2000/svg">
<path d="M9.7915 11.5917C14.7622 11.5917 18.7915 6.19175 18.7915 6.19175C18.7915 6.19175 14.7622 0.791748 9.7915 0.791748C4.8208 0.791748 0.791504 6.19175 0.791504 6.19175C0.791504 6.19175 4.8208 11.5917 9.7915 11.5917Z" stroke="#121217" stroke-width="1.58333" stroke-linejoin="round"/>
<path d="M9.7915 8.44189C10.3882 8.44189 10.9605 8.20484 11.3825 7.78288C11.8045 7.36093 12.0415 6.78863 12.0415 6.19189C12.0415 5.59516 11.8045 5.02286 11.3825 4.6009C10.9605 4.17895 10.3882 3.94189 9.7915 3.94189C9.19477 3.94189 8.62247 4.17895 8.20051 4.6009C7.77856 5.02286 7.5415 5.59516 7.5415 6.19189C7.5415 6.78863 7.77856 7.36093 8.20051 7.78288C8.62247 8.20484 9.19477 8.44189 9.7915 8.44189Z" stroke="#121217" stroke-width="1.58333" stroke-linejoin="round"/>
</svg>
