<svg width="30" height="30" viewBox="0 0 30 30" fill="none" xmlns="http://www.w3.org/2000/svg">
<g clip-path="url(#clip0_327_1495)">
<g clip-path="url(#clip1_327_1495)">
<path d="M7.30591 14.2319V22.0713H15.1453L13.5104 20.4364H8.94082V15.8668L7.30591 14.2319Z" fill="#070916"/>
<path d="M28.4535 26.3957L26.1074 24.0169V26.1586H3.21866V22.7662H4.85357V21.4582H3.21866V16.0222H4.85357V14.7142H3.21866V9.48252H4.85357V8.17459H3.21866V3.60502L16.2489 16.5617V14.2565L2.9816 1.05456C2.86726 0.939275 2.72118 0.860652 2.56199 0.828714C2.40279 0.796777 2.23769 0.812971 2.08773 0.875234C1.93777 0.937497 1.80975 1.04301 1.72 1.17831C1.63024 1.31362 1.58281 1.47259 1.58375 1.63495V26.9761C1.58375 27.1929 1.66988 27.4008 1.82318 27.5541C1.97648 27.7074 2.18441 27.7935 2.40121 27.7935H27.8731C28.0355 27.7945 28.1944 27.747 28.3297 27.6573C28.465 27.5675 28.5706 27.4395 28.6328 27.2895C28.6951 27.1396 28.7113 26.9745 28.6793 26.8153C28.6474 26.6561 28.5688 26.51 28.4535 26.3957Z" fill="#070916"/>
<path d="M19.5675 24.5237H22.8373C23.271 24.5237 23.6868 24.3514 23.9934 24.0448C24.3 23.7382 24.4723 23.3224 24.4723 22.8888V7.11187L22.5921 3.65404C22.4467 3.40212 22.2367 3.19355 21.9838 3.04985C21.7309 2.90616 21.4442 2.83254 21.1534 2.83658C20.856 2.83894 20.5648 2.9224 20.3113 3.07797C20.0578 3.23354 19.8515 3.45532 19.7147 3.71944L17.9326 7.12822V22.8888C17.9326 23.3224 18.1049 23.7382 18.4115 24.0448C18.7181 24.3514 19.1339 24.5237 19.5675 24.5237ZM19.5675 7.5206L21.1534 4.4388L22.8373 7.52878V19.6189H19.5675V7.5206ZM19.5675 20.9514H22.8373V22.946H19.5675V20.9514Z" fill="#070916"/>
</g>
</g>
<defs>
<clipPath id="clip0_327_1495">
<rect width="30" height="30" fill="white"/>
</clipPath>
<clipPath id="clip1_327_1495">
<rect width="29.4284" height="29.4284" fill="white" transform="translate(-0.0512695)"/>
</clipPath>
</defs>
</svg>
