<svg width="30" height="30" viewBox="0 0 30 30" fill="none" xmlns="http://www.w3.org/2000/svg">
<g clip-path="url(#clip0_327_1505)">
<path d="M1.68774 9.42583C1.83198 6.51331 2.26331 4.69645 3.55592 3.40662C4.84575 2.11402 6.6626 1.68269 9.57512 1.53845M28.0391 9.42583C27.8949 6.51331 27.4635 4.69645 26.1709 3.40662C24.8811 2.11402 23.0642 1.68269 20.1517 1.53845M20.1517 27.8898C23.0642 27.7456 24.8811 27.3142 26.1709 26.0216C27.4635 24.7318 27.8949 22.9149 28.0391 20.0024M9.57512 27.8898C6.6626 27.7456 4.84575 27.3142 3.55592 26.0216C2.26331 24.7318 1.83198 22.9149 1.68774 20.0024" stroke="#070916" stroke-width="2" stroke-linecap="round" stroke-linejoin="round"/>
<path d="M25.4527 13.7682C25.7897 14.1899 25.9589 14.4021 25.9589 14.7141C25.9589 15.0262 25.7897 15.2384 25.4527 15.66C23.9368 17.5573 20.0659 21.6487 14.8636 21.6487C9.66131 21.6487 5.79043 17.5573 4.27453 15.66C3.93751 15.2384 3.76831 15.0262 3.76831 14.7141C3.76831 14.4021 3.93751 14.1899 4.27453 13.7682C5.79043 11.8709 9.66131 7.77954 14.8636 7.77954C20.0659 7.77954 23.9368 11.8709 25.4527 13.7682Z" stroke="#070916" stroke-width="2"/>
<path d="M17.6009 14.8377C17.6009 14.102 17.3086 13.3965 16.7884 12.8763C16.2682 12.3561 15.5627 12.0638 14.827 12.0638C14.0914 12.0638 13.3859 12.3561 12.8657 12.8763C12.3455 13.3965 12.0532 14.102 12.0532 14.8377C12.0532 15.5733 12.3455 16.2789 12.8657 16.7991C13.3859 17.3193 14.0914 17.6115 14.827 17.6115C15.5627 17.6115 16.2682 17.3193 16.7884 16.7991C17.3086 16.2789 17.6009 15.5733 17.6009 14.8377Z" stroke="#070916" stroke-width="2"/>
</g>
<defs>
<clipPath id="clip0_327_1505">
<rect width="30" height="30" fill="white"/>
</clipPath>
</defs>
</svg>
