<svg width="30" height="30" viewBox="0 0 30 30" fill="none" xmlns="http://www.w3.org/2000/svg">
<g clip-path="url(#clip0_327_1514)">
<g clip-path="url(#clip1_327_1514)">
<path d="M5.10833 11.1669C4.16753 11.1669 3.26526 11.5407 2.60001 12.2059C1.93477 12.8712 1.56104 13.7734 1.56104 14.7142V18.2615C1.56104 19.2023 1.93477 20.1046 2.60001 20.7698C3.26526 21.4351 4.16753 21.8088 5.10833 21.8088H5.99516C6.23036 21.8088 6.45592 21.7154 6.62224 21.5491C6.78855 21.3828 6.88198 21.1572 6.88198 20.922V12.0538C6.88198 11.8186 6.78855 11.593 6.62224 11.4267C6.45592 11.2604 6.23036 11.1669 5.99516 11.1669H5.10833ZM5.10833 11.1669C5.10833 8.57973 6.1361 6.09849 7.96553 4.26906C9.79496 2.43963 12.2762 1.41187 14.8634 1.41187C17.4506 1.41187 19.9318 2.43963 21.7613 4.26906C23.5907 6.09849 24.6185 8.57973 24.6185 11.1669M24.6185 21.8088H23.7316C23.4964 21.8088 23.2709 21.7154 23.1046 21.5491C22.9383 21.3828 22.8448 21.1572 22.8448 20.922V12.0538C22.8448 11.8186 22.9383 11.593 23.1046 11.4267C23.2709 11.2604 23.4964 11.1669 23.7316 11.1669H24.6185M24.6185 21.8088C25.5593 21.8088 26.4615 21.4351 27.1268 20.7698C27.792 20.1046 28.1658 19.2023 28.1658 18.2615V14.7142C28.1658 13.7734 27.792 12.8712 27.1268 12.2059C26.4615 11.5407 25.5593 11.1669 24.6185 11.1669M24.6185 21.8088V22.6956C24.6185 23.6365 24.2447 24.5387 23.5795 25.204C22.9142 25.8692 22.012 26.2429 21.0712 26.2429H18.4107" stroke="#070916" stroke-width="2" stroke-linecap="round" stroke-linejoin="round"/>
<path d="M11.3162 10.2801C11.3162 9.46432 11.5974 8.67343 12.1125 8.04073C12.6275 7.40804 13.3449 6.97221 14.1438 6.80669C14.9426 6.64117 15.7741 6.75607 16.4982 7.13203C17.2222 7.50799 17.7945 8.12203 18.1187 8.87069C18.3765 9.46782 18.4663 10.1241 18.3765 10.7685C18.2871 11.4125 18.0225 12.0196 17.6115 12.5234C17.2004 13.0272 16.6589 13.4084 16.0459 13.6253C15.6999 13.7476 15.4004 13.9742 15.1887 14.2738C14.9769 14.5735 14.8633 14.9315 14.8635 15.2984V15.6011M16.6371 28.0166H14.8635C14.3931 28.0166 13.9419 27.8298 13.6093 27.4971C13.2767 27.1645 13.0898 26.7134 13.0898 26.243C13.0898 25.7726 13.2767 25.3215 13.6093 24.9888C13.9419 24.6562 14.3931 24.4693 14.8635 24.4693H16.6371C17.1075 24.4693 17.5586 24.6562 17.8913 24.9888C18.2239 25.3215 18.4108 25.7726 18.4108 26.243C18.4108 26.7134 18.2239 27.1645 17.8913 27.4971C17.5586 27.8298 17.1075 28.0166 16.6371 28.0166Z" stroke="#070916" stroke-width="2" stroke-linecap="round" stroke-linejoin="round"/>
<path d="M14.8633 20.0351C14.7457 20.0351 14.6329 19.9884 14.5498 19.9053C14.4666 19.8221 14.4199 19.7093 14.4199 19.5917C14.4199 19.4741 14.4666 19.3613 14.5498 19.2782C14.6329 19.195 14.7457 19.1483 14.8633 19.1483M14.8633 20.0351C14.9809 20.0351 15.0937 19.9884 15.1769 19.9053C15.26 19.8221 15.3067 19.7093 15.3067 19.5917C15.3067 19.4741 15.26 19.3613 15.1769 19.2782C15.0937 19.195 14.9809 19.1483 14.8633 19.1483" stroke="#070916" stroke-width="2"/>
</g>
</g>
<defs>
<clipPath id="clip0_327_1514">
<rect width="30" height="30" fill="white"/>
</clipPath>
<clipPath id="clip1_327_1514">
<rect width="28.3784" height="28.3784" fill="white" transform="translate(0.674316 0.525024)"/>
</clipPath>
</defs>
</svg>
