<svg width="30" height="30" viewBox="0 0 30 30" fill="none" xmlns="http://www.w3.org/2000/svg">
<path d="M26.8031 19.3031L20.625 25.4813L18.1969 23.0531L16.875 24.375L20.625 28.125L28.125 20.625L26.8031 19.3031ZM9.375 18.75H15V20.625H9.375V18.75ZM9.375 15H16.875V16.875H9.375V15Z" fill="#070916"/>
<path d="M7.5 3.75H15V9.375C15 10.4062 15.8438 11.25 16.875 11.25H22.5V16.875H24.375V9.375C24.375 9.09375 24.2812 8.90625 24.0938 8.71875L17.5313 2.15625C17.3438 1.96875 17.1562 1.875 16.875 1.875H7.5C6.46875 1.875 5.625 2.71875 5.625 3.75V26.25C5.625 27.2812 6.46875 28.125 7.5 28.125H14.0625V26.25H7.5V3.75ZM16.875 4.125L22.125 9.375H16.875V4.125Z" fill="#070916"/>
</svg>
