<svg width="30" height="25" viewBox="0 0 30 25" fill="none" xmlns="http://www.w3.org/2000/svg">
<path d="M22.81 9.01678L15.6854 9.08283L15.7097 11.7079C15.7269 13.569 14.227 15.0971 12.3661 15.1144C10.5053 15.1316 8.97725 13.6315 8.96 11.7705L8.90715 6.07028L5.88205 7.92668C4.9824 8.47415 4.43838 9.45901 4.44812 10.5091L4.46867 12.7263L0.738921 14.9268C0.0255896 15.346 -0.214319 16.2671 0.209499 16.9804L4.01957 23.4428C4.4387 24.1562 5.35967 24.3914 6.073 23.9723L10.8937 21.1288L17.2965 21.0694C18.9512 21.0541 20.2839 19.6962 20.2686 18.0415L21.0186 18.0345C21.8482 18.0268 22.5123 17.3503 22.5046 16.5206L22.4768 13.5204L22.8518 13.517C23.4752 13.5112 23.9721 13.005 23.9663 12.3815L23.9454 10.1314C23.9396 9.50793 23.4334 9.011 22.81 9.01678ZM29.7169 7.1994L25.9068 0.737017C25.4877 0.0236234 24.5667 -0.211619 23.8534 0.207546L19.0327 3.05103L14.2423 3.09544C13.6798 3.10066 13.1329 3.26513 12.6575 3.56488L11.0964 4.55917C10.6583 4.83514 10.4003 5.32041 10.405 5.83605L10.4599 11.7566C10.4695 12.7926 11.3163 13.6239 12.3522 13.6143C13.3881 13.6047 14.2194 12.7578 14.2098 11.7218L14.1715 7.59667L22.7961 7.51672C24.2445 7.50329 25.4319 8.66899 25.4454 10.1175L25.4577 11.4535L29.1875 9.253C29.9008 8.82915 30.136 7.91279 29.7169 7.1994Z" fill="#E5D535"/>
</svg>
