<svg width="24" height="24" viewBox="0 0 24 24" fill="none" xmlns="http://www.w3.org/2000/svg">
<g clip-path="url(#clip0_147_1201)">
<path fill-rule="evenodd" clip-rule="evenodd" d="M14.6318 3.00007C15.1586 3.00007 15.671 3.17187 16.0914 3.48941C16.5117 3.80694 16.817 4.25289 16.961 4.75961L17.0048 4.94525L18.6779 13.3106C18.7571 13.7072 18.9392 14.0759 19.2059 14.3799C19.4727 14.6839 19.8147 14.9124 20.1976 15.0425L20.3798 15.0955L22.3353 15.5844C22.7395 15.6854 23.0936 15.929 23.3325 16.2703C23.5715 16.6115 23.6792 17.0276 23.636 17.4419L23.6117 17.6022L22.8115 21.6021C22.752 21.9 22.6341 22.1832 22.4648 22.4354C22.2954 22.6876 22.0779 22.9039 21.8247 23.0718C21.5715 23.2397 21.2877 23.3559 20.9894 23.4138C20.6912 23.4716 20.3845 23.47 20.0869 23.4089L19.9185 23.3674L16.3937 22.3597C15.1837 22.0143 14.1199 21.2826 13.3646 20.2761C12.6707 21.2012 11.7145 21.8963 10.6204 22.2709L10.3368 22.3597L6.8119 23.3674C6.51973 23.4508 6.21397 23.4757 5.91217 23.4406C5.61037 23.4054 5.31849 23.311 5.0533 23.1627C4.78811 23.0144 4.55484 22.8152 4.36689 22.5765C4.17894 22.3377 4.04002 22.0642 3.95811 21.7716L3.91776 21.6021L3.11755 17.6011C3.03588 17.1926 3.1044 16.7683 3.31052 16.4063C3.51663 16.0443 3.84649 15.7688 4.23946 15.6305L4.39396 15.5844L6.34953 15.0955C6.74177 14.9974 7.10133 14.7979 7.39214 14.517C7.68296 14.2361 7.89481 13.8837 8.00645 13.4951L8.05142 13.3106L9.72333 4.94525C9.79996 4.56278 9.96784 4.20449 10.2127 3.90086C10.4576 3.59722 10.7722 3.35724 11.1297 3.20134C11.4873 3.04543 11.8772 2.97821 12.2663 3.0054C12.6555 3.03259 13.0322 3.15339 13.3646 3.35751C13.7336 3.13151 14.1672 3.00007 14.6318 3.00007ZM20.0592 17.3924L19.304 20.7938L20.5504 21.1501L21.2422 17.6887L20.0592 17.3924ZM6.67007 17.3924L5.48705 17.6887L6.17888 21.1501L7.42532 20.7927L6.67007 17.3924ZM14.6318 5.30615C14.6017 5.30645 14.5728 5.31858 14.5515 5.33992C14.5301 5.36126 14.518 5.39012 14.5177 5.4203V16.817C14.5176 17.533 14.7397 18.2315 15.1533 18.816C15.567 19.4004 16.1519 19.8421 16.8272 20.0801L17.0821 20.1585L17.9284 16.3523C17.1503 15.6818 16.6183 14.7708 16.4167 13.7637L14.7448 5.3984C14.7395 5.37235 14.7254 5.34894 14.7048 5.33213C14.6842 5.31533 14.6584 5.30615 14.6318 5.30615ZM12.0974 5.30615C12.0711 5.30641 12.0456 5.31571 12.0252 5.3325C12.0049 5.34928 11.9909 5.37254 11.9856 5.3984L10.3125 13.7637C10.1112 14.7707 9.57967 15.6817 8.80205 16.3523L9.64723 20.1585L9.70258 20.1424C10.4253 19.9359 11.0611 19.4997 11.5138 18.8997C11.9665 18.2997 12.2114 17.5686 12.2116 16.817V5.4203C12.2113 5.38992 12.199 5.36089 12.1774 5.33952C12.1558 5.31814 12.1267 5.30615 12.0963 5.30615H12.0974Z" fill="#E5D535"/>
</g>
<defs>
<clipPath id="clip0_147_1201">
<rect width="24" height="24" fill="white"/>
</clipPath>
</defs>
</svg>
