<svg width="24" height="24" viewBox="0 0 24 24" fill="none" xmlns="http://www.w3.org/2000/svg">
<g clip-path="url(#clip0_147_1191)">
<path d="M23.7688 8.8359C22.9108 6.48934 20.1077 5.71365 18.1749 6.99802L15.5857 4.84834C16.2855 2.57598 14.6505 0.0763675 12.1087 0.00263311C9.49088 -0.0733044 7.68413 2.47515 8.41369 4.84529L5.82258 6.99643C3.83077 5.67282 0.956345 6.5514 0.180377 8.98412C-0.536436 11.2314 0.974814 13.4341 3.09375 13.8153L4.09627 17.4124C2.30611 18.9537 2.34956 21.9183 4.44633 23.3428C6.52355 24.7539 9.2685 23.738 10.0758 21.5518H13.9179C14.7545 23.8428 17.6691 24.8017 19.7215 23.2173C21.6982 21.6914 21.5998 18.7908 19.8029 17.3346L20.8379 13.8271C23.0595 13.4731 24.6071 11.1285 23.7688 8.8359ZM13.7623 19.4898H10.234C9.83991 17.5525 7.94095 16.2392 5.99311 16.5379L5.17327 13.596C7.16419 12.795 8.04056 10.4522 7.16649 8.56098L9.54202 6.58885C10.9278 7.79429 13.0565 7.8092 14.4554 6.59045L16.833 8.5644C15.9612 10.4504 16.8365 12.753 18.7634 13.5705L17.8926 16.5215C15.9646 16.2808 14.1494 17.6086 13.7623 19.4898Z" fill="#E5D535"/>
</g>
<defs>
<clipPath id="clip0_147_1191">
<rect width="24" height="24" fill="white"/>
</clipPath>
</defs>
</svg>
