<svg width="30" height="24" viewBox="0 0 30 24" fill="none" xmlns="http://www.w3.org/2000/svg">
<path d="M0 24V20.2667C0 19.5333 0.188889 18.8444 0.566667 18.2C0.944445 17.5556 1.46667 17.0667 2.13333 16.7333C3.26667 16.1556 4.54445 15.6667 5.96667 15.2667C7.38889 14.8667 8.95556 14.6667 10.6667 14.6667C12.3778 14.6667 13.9444 14.8667 15.3667 15.2667C16.7889 15.6667 18.0667 16.1556 19.2 16.7333C19.8667 17.0667 20.3889 17.5556 20.7667 18.2C21.1444 18.8444 21.3333 19.5333 21.3333 20.2667V24H0ZM2.66667 21.3333H18.6667V20.2667C18.6667 20.0222 18.6058 19.8 18.484 19.6C18.3622 19.4 18.2009 19.2444 18 19.1333C17.2 18.7333 16.1724 18.3333 14.9173 17.9333C13.6622 17.5333 12.2453 17.3333 10.6667 17.3333C9.088 17.3333 7.67156 17.5333 6.41733 17.9333C5.16311 18.3333 4.13511 18.7333 3.33333 19.1333C3.13333 19.2444 2.97244 19.4 2.85067 19.6C2.72889 19.8 2.66756 20.0222 2.66667 20.2667V21.3333ZM10.6667 13.3333C9.2 13.3333 7.94445 12.8111 6.9 11.7667C5.85556 10.7222 5.33333 9.46667 5.33333 8H5C4.8 8 4.63911 7.93911 4.51733 7.81733C4.39556 7.69556 4.33422 7.53422 4.33333 7.33333C4.33244 7.13244 4.39378 6.97111 4.51733 6.84933C4.64089 6.72756 4.80178 6.66667 5 6.66667H5.33333C5.33333 5.66667 5.57778 4.76667 6.06667 3.96667C6.55556 3.16667 7.2 2.53333 8 2.06667V3.33333C8 3.53333 8.06133 3.69467 8.184 3.81733C8.30667 3.94 8.46756 4.00089 8.66667 4C8.86578 3.99911 9.02711 3.93822 9.15067 3.81733C9.27422 3.69644 9.33511 3.53511 9.33333 3.33333V1.53333C9.53333 1.46667 9.74444 1.41689 9.96667 1.384C10.1889 1.35111 10.4222 1.33422 10.6667 1.33333C10.9111 1.33244 11.1444 1.34933 11.3667 1.384C11.5889 1.41867 11.8 1.46844 12 1.53333V3.33333C12 3.53333 12.0613 3.69467 12.184 3.81733C12.3067 3.94 12.4676 4.00089 12.6667 4C12.8658 3.99911 13.0271 3.93822 13.1507 3.81733C13.2742 3.69644 13.3351 3.53511 13.3333 3.33333V2.06667C14.1333 2.53333 14.7778 3.16667 15.2667 3.96667C15.7556 4.76667 16 5.66667 16 6.66667H16.3333C16.5333 6.66667 16.6947 6.728 16.8173 6.85067C16.94 6.97333 17.0009 7.13422 17 7.33333C16.9991 7.53244 16.9382 7.69378 16.8173 7.81733C16.6964 7.94089 16.5351 8.00178 16.3333 8H16C16 9.46667 15.4778 10.7222 14.4333 11.7667C13.3889 12.8111 12.1333 13.3333 10.6667 13.3333ZM10.6667 10.6667C11.4 10.6667 12.028 10.4058 12.5507 9.884C13.0733 9.36222 13.3342 8.73422 13.3333 8H8C8 8.73333 8.26133 9.36133 8.784 9.884C9.30667 10.4067 9.93422 10.6676 10.6667 10.6667ZM20.6667 16L20.4667 15C20.3333 14.9556 20.2058 14.9058 20.084 14.8507C19.9622 14.7956 19.8453 14.712 19.7333 14.6L18.8 14.9333L18.1333 13.7333L18.8667 13.0667V12.2667L18.1333 11.6L18.8 10.4L19.7333 10.7333C19.8222 10.6444 19.9333 10.5667 20.0667 10.5C20.2 10.4333 20.3333 10.3778 20.4667 10.3333L20.6667 9.33333H22L22.2 10.3333C22.3333 10.3778 22.4667 10.4333 22.6 10.5C22.7333 10.5667 22.8444 10.6444 22.9333 10.7333L23.8667 10.4L24.5333 11.6L23.8 12.2667V13.0667L24.5333 13.7333L23.8667 14.9333L22.9333 14.6C22.8222 14.7111 22.7058 14.7947 22.584 14.8507C22.4622 14.9067 22.3342 14.9564 22.2 15L22 16H20.6667ZM21.3333 13.6667C21.6 13.6667 21.8333 13.5667 22.0333 13.3667C22.2333 13.1667 22.3333 12.9333 22.3333 12.6667C22.3333 12.4 22.2333 12.1667 22.0333 11.9667C21.8333 11.7667 21.6 11.6667 21.3333 11.6667C21.0667 11.6667 20.8333 11.7667 20.6333 11.9667C20.4333 12.1667 20.3333 12.4 20.3333 12.6667C20.3333 12.9333 20.4333 13.1667 20.6333 13.3667C20.8333 13.5667 21.0667 13.6667 21.3333 13.6667ZM23.7333 9.33333L23.4667 7.93333C23.2667 7.86667 23.0836 7.78356 22.9173 7.684C22.7511 7.58444 22.6009 7.46756 22.4667 7.33333L21.0667 7.8L20.1333 6.2L21.2667 5.2C21.2222 5.08889 21.2 5 21.2 4.93333V4.4C21.2 4.33333 21.2222 4.24444 21.2667 4.13333L20.1333 3.13333L21.0667 1.53333L22.4667 2C22.6 1.86667 22.7502 1.74978 22.9173 1.64933C23.0844 1.54889 23.2676 1.46578 23.4667 1.4L23.7333 0H25.6L25.8667 1.4C26.0667 1.46667 26.2502 1.55022 26.4173 1.65067C26.5844 1.75111 26.7342 1.86756 26.8667 2L28.2667 1.53333L29.2 3.13333L28.0667 4.13333C28.1111 4.24444 28.1333 4.33333 28.1333 4.4V4.93333C28.1333 5 28.1111 5.08889 28.0667 5.2L29.2 6.2L28.2667 7.8L26.8667 7.33333C26.7333 7.46667 26.5836 7.58356 26.4173 7.684C26.2511 7.78444 26.0676 7.86756 25.8667 7.93333L25.6 9.33333H23.7333ZM24.6667 6.33333C25.1333 6.33333 25.528 6.172 25.8507 5.84933C26.1733 5.52667 26.3342 5.13244 26.3333 4.66667C26.3324 4.20089 26.1711 3.80622 25.8493 3.48267C25.5276 3.15911 25.1333 2.99822 24.6667 3C24.2 3.00178 23.8053 3.16311 23.4827 3.484C23.16 3.80489 22.9991 4.19911 23 4.66667C23.0009 5.13422 23.1622 5.52889 23.484 5.85067C23.8058 6.17244 24.2 6.33333 24.6667 6.33333Z" fill="#E5D535"/>
</svg>
